<svg id="SvgjsSvg1001" width="288" height="288" xmlns="http://www.w3.org/2000/svg" version="1.1" xmlns:xlink="http://www.w3.org/1999/xlink" xmlns:svgjs="http://svgjs.com/svgjs"><defs id="SvgjsDefs1002"></defs><g id="SvgjsG1008"><svg xmlns="http://www.w3.org/2000/svg" data-name="Layer 1" viewBox="0 0 24 24" width="288" height="288"><path fill="#000000" d="M12,24C5.383,24,0,18.617,0,12S5.383,0,12,0s12,5.383,12,12-5.383,12-12,12Zm0-22C6.486,2,2,6.486,2,12s4.486,10,10,10,10-4.486,10-10S17.514,2,12,2Zm1,15V7c0-.404-.244-.77-.617-.924-.375-.157-.805-.069-1.09,.217l-2.444,2.444c-.391,.391-.391,1.023,0,1.414s1.023,.391,1.414,0l.737-.737v7.586c0,.553,.448,1,1,1s1-.447,1-1Z" class="colorfff svgShape"></path></svg></g></svg>