<svg id="SvgjsSvg1001" width="288" height="288" xmlns="http://www.w3.org/2000/svg" version="1.1" xmlns:xlink="http://www.w3.org/1999/xlink" xmlns:svgjs="http://svgjs.com/svgjs"><defs id="SvgjsDefs1002"></defs><g id="SvgjsG1008"><svg xmlns="http://www.w3.org/2000/svg" data-name="Layer 1" viewBox="0 0 24 24" width="288" height="288"><path fill="#000000" d="M17,14c0,2.206-1.794,4-4,4h-4v-2h4c1.103,0,2-.897,2-2s-.897-2-2-2h-3v-2h3c.552,0,1-.448,1-1s-.448-1-1-1h-4v-2h4c1.654,0,3,1.346,3,3,0,.68-.236,1.301-.619,1.805,.977,.73,1.619,1.885,1.619,3.195Zm7-2c0,6.617-5.383,12-12,12S0,18.617,0,12,5.383,0,12,0s12,5.383,12,12Zm-2,0c0-5.514-4.486-10-10-10S2,6.486,2,12s4.486,10,10,10,10-4.486,10-10Z" class="colorfff svgShape"></path></svg></g></svg>