<svg id="SvgjsSvg1001" width="288" height="288" xmlns="http://www.w3.org/2000/svg" version="1.1" xmlns:xlink="http://www.w3.org/1999/xlink" xmlns:svgjs="http://svgjs.com/svgjs"><defs id="SvgjsDefs1002"></defs><g id="SvgjsG1008"><svg xmlns="http://www.w3.org/2000/svg" data-name="Layer 1" viewBox="0 0 24 24" width="288" height="288"><path fill="#000000" d="M9 24h-8a1 1 0 010-2h8a1 1 0 010 2zM7 20h-6a1 1 0 010-2h6a1 1 0 010 2zM5 16h-4a1 1 0 010-2h4a1 1 0 010 2z" class="colorfff svgShape"></path><path fill="#000000" d="m13 23.955a1 1 0 0 1 -.089-2 10 10 0 1 0 -10.87-10.865 1 1 0 0 1 -1.992-.18 12 12 0 0 1 23.951 1.09 11.934 11.934 0 0 1 -10.91 11.951c-.03.003-.061.004-.09.004z" class="colorfff svgShape"></path><path fill="#000000" d="m12 6a1 1 0 0 0 -1 1v5a1 1 0 0 0 .293.707l3 3a1 1 0 0 0 1.414-1.414l-2.707-2.707v-4.586a1 1 0 0 0 -1-1z" class="colorfff svgShape"></path></svg></g></svg>